<mxfile host="app.diagrams.net" modified="2024-07-16T07:19:26.242Z" agent="Mozilla/5.0 (Windows NT 10.0; Win64; x64) AppleWebKit/537.36 (KHTML, like Gecko) Chrome/126.0.0.0 Safari/537.36" etag="WzIGu4S4CigXtayvF4uz" version="24.6.5" type="device" pages="2">
  <diagram name="Page-1" id="0RDuLrXmvtGY637Ufe_d">
    <mxGraphModel dx="1232" dy="1105" grid="1" gridSize="10" guides="1" tooltips="1" connect="1" arrows="1" fold="1" page="1" pageScale="1" pageWidth="850" pageHeight="1100" math="0" shadow="0">
      <root>
        <mxCell id="0" />
        <mxCell id="1" parent="0" />
        <mxCell id="gHdQIpbjyGhM6Gqyf8fr-4" value="" style="edgeStyle=orthogonalEdgeStyle;rounded=0;orthogonalLoop=1;jettySize=auto;html=1;endArrow=none;endFill=0;dashed=1;dashPattern=1 2;" parent="1" source="gHdQIpbjyGhM6Gqyf8fr-1" target="gHdQIpbjyGhM6Gqyf8fr-3" edge="1">
          <mxGeometry relative="1" as="geometry" />
        </mxCell>
        <mxCell id="gHdQIpbjyGhM6Gqyf8fr-6" value="" style="edgeStyle=orthogonalEdgeStyle;rounded=0;orthogonalLoop=1;jettySize=auto;html=1;" parent="1" source="gHdQIpbjyGhM6Gqyf8fr-1" target="gHdQIpbjyGhM6Gqyf8fr-5" edge="1">
          <mxGeometry relative="1" as="geometry" />
        </mxCell>
        <mxCell id="gHdQIpbjyGhM6Gqyf8fr-1" value="&lt;div&gt;&lt;b&gt;&lt;br&gt;&lt;/b&gt;&lt;/div&gt;&lt;b&gt;&lt;div&gt;&lt;b&gt;&lt;br&gt;&lt;/b&gt;&lt;/div&gt;Create &lt;/b&gt;[Synthetic] Customer Orders &lt;b&gt;data&amp;nbsp;&lt;/b&gt;&lt;div&gt;&lt;i&gt;via Faker&lt;/i&gt;&lt;br&gt;&lt;div&gt;&lt;br&gt;&lt;/div&gt;&lt;div style=&quot;&quot;&gt;&lt;ul&gt;&lt;li style=&quot;text-align: left;&quot;&gt;&lt;b&gt;Customer Information &lt;/b&gt;data&lt;/li&gt;&lt;ul&gt;&lt;li style=&quot;text-align: left;&quot;&gt;Phone number, email&lt;/li&gt;&lt;/ul&gt;&lt;/ul&gt;&lt;ul&gt;&lt;li style=&quot;text-align: left;&quot;&gt;&lt;b&gt;Customer Order&lt;/b&gt; data&lt;/li&gt;&lt;ul&gt;&lt;li style=&quot;text-align: left;&quot;&gt;Quantities, product_id, costs&lt;/li&gt;&lt;/ul&gt;&lt;/ul&gt;&lt;/div&gt;&lt;/div&gt;" style="rounded=0;whiteSpace=wrap;html=1;" parent="1" vertex="1">
          <mxGeometry x="308" y="230" width="222" height="200" as="geometry" />
        </mxCell>
        <mxCell id="gHdQIpbjyGhM6Gqyf8fr-2" value="Customer Order - Anomaly Detection&lt;div style=&quot;font-size: 16px;&quot;&gt;&lt;i style=&quot;font-weight: normal;&quot;&gt;Synthetic&lt;/i&gt;&lt;/div&gt;" style="text;strokeColor=none;fillColor=none;html=1;fontSize=24;fontStyle=1;verticalAlign=middle;align=center;" parent="1" vertex="1">
          <mxGeometry x="298" y="40" width="255" height="40" as="geometry" />
        </mxCell>
        <mxCell id="gHdQIpbjyGhM6Gqyf8fr-3" value="&lt;div&gt;Data synthesized by Faker&lt;/div&gt;&lt;div&gt;&lt;span style=&quot;background-color: initial;&quot;&gt;Compiled to dataframes by Pandas&lt;/span&gt;&lt;br&gt;&lt;/div&gt;&lt;div&gt;&lt;span style=&quot;background-color: initial;&quot;&gt;Pushed to SQLite database by Pandas&lt;/span&gt;&lt;/div&gt;&lt;div&gt;&lt;span style=&quot;background-color: initial;&quot;&gt;&lt;br&gt;&lt;/span&gt;&lt;/div&gt;&lt;div&gt;&lt;span style=&quot;background-color: initial;&quot;&gt;&lt;b&gt;Data from 2024&lt;/b&gt;&lt;/span&gt;&lt;/div&gt;&lt;div&gt;&lt;br&gt;&lt;/div&gt;&lt;i&gt;Add: To have a scheduler, to repeat the process daily - simulate daily orders&lt;/i&gt;" style="rounded=1;whiteSpace=wrap;html=1;fillColor=#f5f5f5;fontColor=#333333;strokeColor=#666666;align=center;" parent="1" vertex="1">
          <mxGeometry x="274" y="470" width="290" height="140" as="geometry" />
        </mxCell>
        <mxCell id="gHdQIpbjyGhM6Gqyf8fr-5" value="&lt;b&gt;Data onboarded onto&lt;/b&gt; &lt;b&gt;SQLite &lt;/b&gt;Database&lt;div&gt;&lt;br&gt;&lt;/div&gt;&lt;div&gt;Two tables:&lt;/div&gt;&lt;div&gt;&lt;ul&gt;&lt;li&gt;customer_information&lt;br&gt;&lt;/li&gt;&lt;li&gt;&lt;span style=&quot;background-color: initial;&quot;&gt;purchase_order&lt;/span&gt;&lt;/li&gt;&lt;/ul&gt;&lt;span style=&quot;background-color: initial;&quot;&gt;DAP_database.db&lt;/span&gt;&lt;br&gt;&lt;/div&gt;" style="rounded=0;whiteSpace=wrap;html=1;" parent="1" vertex="1">
          <mxGeometry x="600" y="235" width="200" height="190" as="geometry" />
        </mxCell>
        <mxCell id="gHdQIpbjyGhM6Gqyf8fr-8" value="" style="edgeStyle=orthogonalEdgeStyle;rounded=0;orthogonalLoop=1;jettySize=auto;html=1;" parent="1" source="gHdQIpbjyGhM6Gqyf8fr-7" target="gHdQIpbjyGhM6Gqyf8fr-1" edge="1">
          <mxGeometry relative="1" as="geometry" />
        </mxCell>
        <mxCell id="gHdQIpbjyGhM6Gqyf8fr-7" value="&lt;b&gt;Create SQLite Database&lt;/b&gt;.&lt;div&gt;&lt;br&gt;&lt;/div&gt;&lt;div&gt;DAP_database.db&lt;/div&gt;" style="rounded=0;whiteSpace=wrap;html=1;" parent="1" vertex="1">
          <mxGeometry x="90" y="265" width="150" height="130" as="geometry" />
        </mxCell>
        <mxCell id="gHdQIpbjyGhM6Gqyf8fr-9" value="" style="shape=curlyBracket;whiteSpace=wrap;html=1;rounded=1;flipH=1;labelPosition=right;verticalLabelPosition=middle;align=left;verticalAlign=middle;rotation=90;" parent="1" vertex="1">
          <mxGeometry x="426.88" y="288.13" width="37.5" height="731.25" as="geometry" />
        </mxCell>
        <mxCell id="gHdQIpbjyGhM6Gqyf8fr-10" value="&lt;b&gt;&lt;font style=&quot;font-size: 16px;&quot;&gt;Static&lt;/font&gt;&lt;/b&gt;" style="text;html=1;align=center;verticalAlign=middle;whiteSpace=wrap;rounded=0;" parent="1" vertex="1">
          <mxGeometry x="396.57" y="680" width="98.12" height="50" as="geometry" />
        </mxCell>
        <mxCell id="gHdQIpbjyGhM6Gqyf8fr-11" value="&lt;b&gt;&lt;font style=&quot;font-size: 16px;&quot;&gt;Data Curation and Storage&lt;/font&gt;&lt;/b&gt;" style="text;html=1;align=center;verticalAlign=middle;whiteSpace=wrap;rounded=0;" parent="1" vertex="1">
          <mxGeometry x="376" y="140" width="98.12" height="50" as="geometry" />
        </mxCell>
        <mxCell id="gHdQIpbjyGhM6Gqyf8fr-12" value="&lt;i&gt;Once, the &quot;static&quot; aspect of the pipeline become &quot;active&quot;, i.e. appending new data - that&#39;s when Spark will shine&lt;/i&gt;&lt;div&gt;&lt;br&gt;&lt;/div&gt;&lt;div&gt;Where Spark can work with growing, larger sets of data much more efficiently and effectively&amp;nbsp;&lt;/div&gt;" style="text;html=1;align=center;verticalAlign=middle;whiteSpace=wrap;rounded=0;" parent="1" vertex="1">
          <mxGeometry x="130" y="680" width="210" height="120" as="geometry" />
        </mxCell>
        <mxCell id="czM_Fx6zvP7NGnkBj0xQ-1" value="&lt;i&gt;&lt;b&gt;File-0&lt;/b&gt;&lt;/i&gt;" style="text;html=1;align=center;verticalAlign=middle;whiteSpace=wrap;rounded=0;" vertex="1" parent="1">
          <mxGeometry x="180" y="265" width="60" height="30" as="geometry" />
        </mxCell>
        <mxCell id="czM_Fx6zvP7NGnkBj0xQ-2" value="&lt;i&gt;&lt;b&gt;File-1&lt;/b&gt;&lt;/i&gt;" style="text;html=1;align=center;verticalAlign=middle;whiteSpace=wrap;rounded=0;" vertex="1" parent="1">
          <mxGeometry x="470" y="230" width="60" height="30" as="geometry" />
        </mxCell>
        <mxCell id="czM_Fx6zvP7NGnkBj0xQ-4" value="&lt;i&gt;&lt;b&gt;File-2&lt;/b&gt;&lt;/i&gt;" style="text;html=1;align=center;verticalAlign=middle;whiteSpace=wrap;rounded=0;" vertex="1" parent="1">
          <mxGeometry x="740" y="230" width="60" height="35" as="geometry" />
        </mxCell>
        <mxCell id="czM_Fx6zvP7NGnkBj0xQ-5" value="&lt;span style=&quot;font-size: 16px;&quot;&gt;&lt;b&gt;Analysis, Anomaly Detection and Visualization&lt;/b&gt;&lt;/span&gt;" style="text;html=1;align=center;verticalAlign=middle;whiteSpace=wrap;rounded=0;" vertex="1" parent="1">
          <mxGeometry x="348" y="830" width="154" height="50" as="geometry" />
        </mxCell>
        <mxCell id="czM_Fx6zvP7NGnkBj0xQ-9" value="" style="edgeStyle=orthogonalEdgeStyle;rounded=0;orthogonalLoop=1;jettySize=auto;html=1;" edge="1" parent="1" source="czM_Fx6zvP7NGnkBj0xQ-6" target="czM_Fx6zvP7NGnkBj0xQ-8">
          <mxGeometry relative="1" as="geometry" />
        </mxCell>
        <mxCell id="czM_Fx6zvP7NGnkBj0xQ-6" value="&lt;b&gt;Initialize the Spark session&amp;nbsp;&lt;/b&gt;&lt;div&gt;&lt;b&gt;&lt;br&gt;&lt;/b&gt;&lt;/div&gt;&lt;div&gt;Set-up the driver for Java, to invoke the SQLite database&lt;/div&gt;" style="rounded=0;whiteSpace=wrap;html=1;" vertex="1" parent="1">
          <mxGeometry x="90" y="960" width="160" height="150" as="geometry" />
        </mxCell>
        <mxCell id="czM_Fx6zvP7NGnkBj0xQ-7" value="&lt;span style=&quot;font-size: 16px;&quot;&gt;&lt;b&gt;- Via PySpark&lt;/b&gt;&lt;/span&gt;" style="text;html=1;align=center;verticalAlign=middle;whiteSpace=wrap;rounded=0;" vertex="1" parent="1">
          <mxGeometry x="474.12" y="830" width="154" height="50" as="geometry" />
        </mxCell>
        <mxCell id="czM_Fx6zvP7NGnkBj0xQ-11" value="" style="edgeStyle=orthogonalEdgeStyle;rounded=0;orthogonalLoop=1;jettySize=auto;html=1;" edge="1" parent="1" source="czM_Fx6zvP7NGnkBj0xQ-8" target="czM_Fx6zvP7NGnkBj0xQ-10">
          <mxGeometry relative="1" as="geometry" />
        </mxCell>
        <mxCell id="czM_Fx6zvP7NGnkBj0xQ-8" value="&lt;div&gt;&lt;b&gt;Invoke connection to the SQLite database&lt;/b&gt;&lt;/div&gt;&lt;b&gt;&lt;div&gt;&lt;b&gt;&lt;br&gt;&lt;/b&gt;&lt;/div&gt;Provide path to the SQLite database&lt;/b&gt;&lt;div&gt;&lt;b&gt;&lt;br&gt;&lt;/b&gt;&lt;/div&gt;&lt;div&gt;Read the respectively:&lt;/div&gt;&lt;div&gt;&lt;ul&gt;&lt;li&gt;[&lt;b&gt;customer_information&lt;/b&gt;] as [&lt;b&gt;customer_info_spark_df&lt;/b&gt;]&lt;/li&gt;&lt;li&gt;[&lt;b style=&quot;background-color: initial;&quot;&gt;purchase_order&lt;/b&gt;&lt;span style=&quot;background-color: initial;&quot;&gt;] as [&lt;b&gt;purchase_orders_spark_df&lt;/b&gt;]&lt;/span&gt;&lt;/li&gt;&lt;/ul&gt;&lt;/div&gt;" style="rounded=0;whiteSpace=wrap;html=1;" vertex="1" parent="1">
          <mxGeometry x="322.63" y="920" width="217.37" height="230" as="geometry" />
        </mxCell>
        <mxCell id="czM_Fx6zvP7NGnkBj0xQ-16" value="" style="edgeStyle=orthogonalEdgeStyle;rounded=0;orthogonalLoop=1;jettySize=auto;html=1;" edge="1" parent="1" source="czM_Fx6zvP7NGnkBj0xQ-10" target="czM_Fx6zvP7NGnkBj0xQ-15">
          <mxGeometry relative="1" as="geometry" />
        </mxCell>
        <mxCell id="czM_Fx6zvP7NGnkBj0xQ-10" value="&lt;div&gt;&lt;b&gt;Minor Processing &amp;amp; Analysis&lt;/b&gt;:&lt;/div&gt;&lt;div&gt;&lt;b&gt;&lt;br&gt;&lt;/b&gt;&lt;/div&gt;&lt;div&gt;&lt;ul&gt;&lt;li&gt;&lt;b&gt;Drop any null values&lt;/b&gt;&lt;/li&gt;&lt;li&gt;&lt;b&gt;Groupby operations, to get the &lt;i&gt;quanity purchased per customer&lt;/i&gt;&lt;/b&gt;&lt;/li&gt;&lt;/ul&gt;&lt;/div&gt;" style="rounded=0;whiteSpace=wrap;html=1;" vertex="1" parent="1">
          <mxGeometry x="600" y="940" width="217.37" height="190" as="geometry" />
        </mxCell>
        <mxCell id="czM_Fx6zvP7NGnkBj0xQ-12" value="&lt;b&gt;&lt;i&gt;File-3&lt;/i&gt;&lt;/b&gt;" style="text;html=1;align=center;verticalAlign=middle;whiteSpace=wrap;rounded=0;" vertex="1" parent="1">
          <mxGeometry x="190" y="960" width="60" height="30" as="geometry" />
        </mxCell>
        <mxCell id="czM_Fx6zvP7NGnkBj0xQ-13" value="&lt;b&gt;&lt;i&gt;File-3&lt;/i&gt;&lt;/b&gt;" style="text;html=1;align=center;verticalAlign=middle;whiteSpace=wrap;rounded=0;" vertex="1" parent="1">
          <mxGeometry x="480" y="920" width="60" height="30" as="geometry" />
        </mxCell>
        <mxCell id="czM_Fx6zvP7NGnkBj0xQ-14" value="&lt;b&gt;&lt;i&gt;File-3&lt;/i&gt;&lt;/b&gt;" style="text;html=1;align=center;verticalAlign=middle;whiteSpace=wrap;rounded=0;" vertex="1" parent="1">
          <mxGeometry x="757.37" y="940" width="60" height="30" as="geometry" />
        </mxCell>
        <mxCell id="czM_Fx6zvP7NGnkBj0xQ-19" value="" style="edgeStyle=orthogonalEdgeStyle;rounded=0;orthogonalLoop=1;jettySize=auto;html=1;" edge="1" parent="1" source="czM_Fx6zvP7NGnkBj0xQ-15" target="czM_Fx6zvP7NGnkBj0xQ-18">
          <mxGeometry relative="1" as="geometry" />
        </mxCell>
        <mxCell id="czM_Fx6zvP7NGnkBj0xQ-15" value="&lt;div&gt;&lt;b&gt;Set-up Anomaly Detection model&lt;/b&gt; - KMeans&lt;/div&gt;&lt;div&gt;&lt;br&gt;&lt;/div&gt;&lt;div&gt;With the idea that - Normal data points will remain in larger clusters, but anomalous data points will be within their own unqiue clusters&lt;/div&gt;" style="rounded=0;whiteSpace=wrap;html=1;" vertex="1" parent="1">
          <mxGeometry x="600" y="1240" width="217.37" height="190" as="geometry" />
        </mxCell>
        <mxCell id="czM_Fx6zvP7NGnkBj0xQ-17" value="&lt;b&gt;&lt;i&gt;File-3&lt;/i&gt;&lt;/b&gt;" style="text;html=1;align=center;verticalAlign=middle;whiteSpace=wrap;rounded=0;" vertex="1" parent="1">
          <mxGeometry x="757.3699999999999" y="1240" width="60" height="30" as="geometry" />
        </mxCell>
        <mxCell id="czM_Fx6zvP7NGnkBj0xQ-23" value="" style="edgeStyle=orthogonalEdgeStyle;rounded=0;orthogonalLoop=1;jettySize=auto;html=1;" edge="1" parent="1" source="czM_Fx6zvP7NGnkBj0xQ-18" target="czM_Fx6zvP7NGnkBj0xQ-22">
          <mxGeometry relative="1" as="geometry" />
        </mxCell>
        <mxCell id="czM_Fx6zvP7NGnkBj0xQ-18" value="&lt;div&gt;&lt;b&gt;Fit model&lt;/b&gt; to the respective tables&lt;/div&gt;&lt;div&gt;&lt;br&gt;&lt;/div&gt;&lt;div&gt;To &lt;i&gt;Identify the &quot;unique&quot; clusters&lt;/i&gt; that may contain anomalous activity, we &lt;i&gt;select the clusters with the lowest count of data points&lt;/i&gt;&lt;/div&gt;" style="rounded=0;whiteSpace=wrap;html=1;" vertex="1" parent="1">
          <mxGeometry x="335.63" y="1240" width="217.37" height="190" as="geometry" />
        </mxCell>
        <mxCell id="czM_Fx6zvP7NGnkBj0xQ-20" value="&lt;b&gt;&lt;i&gt;File-3&lt;/i&gt;&lt;/b&gt;" style="text;html=1;align=center;verticalAlign=middle;whiteSpace=wrap;rounded=0;" vertex="1" parent="1">
          <mxGeometry x="492.9999999999999" y="1240" width="60" height="30" as="geometry" />
        </mxCell>
        <mxCell id="czM_Fx6zvP7NGnkBj0xQ-22" value="&lt;div&gt;&lt;b&gt;Visualize &lt;/b&gt;the results:&lt;/div&gt;&lt;div&gt;&lt;br&gt;&lt;/div&gt;&lt;div&gt;Line plot for the raw sales over-time&lt;/div&gt;&lt;div&gt;&lt;br&gt;&lt;/div&gt;&lt;div&gt;Anomalous periods are overlayed via scatter points&lt;/div&gt;" style="rounded=0;whiteSpace=wrap;html=1;" vertex="1" parent="1">
          <mxGeometry x="22.629999999999995" y="1240" width="217.37" height="190" as="geometry" />
        </mxCell>
        <mxCell id="czM_Fx6zvP7NGnkBj0xQ-24" value="&lt;b&gt;&lt;i&gt;File-3&lt;/i&gt;&lt;/b&gt;" style="text;html=1;align=center;verticalAlign=middle;whiteSpace=wrap;rounded=0;" vertex="1" parent="1">
          <mxGeometry x="179.9999999999999" y="1240" width="60" height="30" as="geometry" />
        </mxCell>
      </root>
    </mxGraphModel>
  </diagram>
  <diagram id="cRCvlkGopGXBZyLJhQ-8" name="Page-2">
    <mxGraphModel dx="1232" dy="1105" grid="1" gridSize="10" guides="1" tooltips="1" connect="1" arrows="1" fold="1" page="1" pageScale="1" pageWidth="850" pageHeight="1100" math="0" shadow="0">
      <root>
        <mxCell id="0" />
        <mxCell id="1" parent="0" />
        <mxCell id="5w3eW8xjQz-hiDy6CdJV-9" style="edgeStyle=orthogonalEdgeStyle;rounded=0;orthogonalLoop=1;jettySize=auto;html=1;entryX=0;entryY=0.5;entryDx=0;entryDy=0;" edge="1" parent="1" source="5w3eW8xjQz-hiDy6CdJV-1" target="5w3eW8xjQz-hiDy6CdJV-6">
          <mxGeometry relative="1" as="geometry" />
        </mxCell>
        <mxCell id="5w3eW8xjQz-hiDy6CdJV-1" value="Created Data" style="ellipse;whiteSpace=wrap;html=1;aspect=fixed;" vertex="1" parent="1">
          <mxGeometry x="20" y="150" width="90" height="90" as="geometry" />
        </mxCell>
        <mxCell id="5w3eW8xjQz-hiDy6CdJV-2" value="Growing Data - PySpark &amp;gt; Pandas" style="text;strokeColor=none;fillColor=none;html=1;fontSize=24;fontStyle=1;verticalAlign=middle;align=center;" vertex="1" parent="1">
          <mxGeometry x="250" y="10" width="350" height="80" as="geometry" />
        </mxCell>
        <mxCell id="5w3eW8xjQz-hiDy6CdJV-4" value="" style="rounded=0;whiteSpace=wrap;html=1;" vertex="1" parent="1">
          <mxGeometry x="220" y="150" width="70" height="30" as="geometry" />
        </mxCell>
        <mxCell id="5w3eW8xjQz-hiDy6CdJV-6" value="Database" style="rounded=0;whiteSpace=wrap;html=1;" vertex="1" parent="1">
          <mxGeometry x="220" y="180" width="70" height="30" as="geometry" />
        </mxCell>
        <mxCell id="5w3eW8xjQz-hiDy6CdJV-7" value="" style="rounded=0;whiteSpace=wrap;html=1;" vertex="1" parent="1">
          <mxGeometry x="220" y="210" width="70" height="30" as="geometry" />
        </mxCell>
        <mxCell id="5w3eW8xjQz-hiDy6CdJV-10" value="New Data" style="whiteSpace=wrap;html=1;aspect=fixed;" vertex="1" parent="1">
          <mxGeometry x="220" y="330" width="75" height="75" as="geometry" />
        </mxCell>
        <mxCell id="5w3eW8xjQz-hiDy6CdJV-11" value="Existing table" style="ellipse;whiteSpace=wrap;html=1;aspect=fixed;" vertex="1" parent="1">
          <mxGeometry x="390" y="230" width="80" height="80" as="geometry" />
        </mxCell>
        <mxCell id="5w3eW8xjQz-hiDy6CdJV-19" style="edgeStyle=orthogonalEdgeStyle;rounded=0;orthogonalLoop=1;jettySize=auto;html=1;entryX=0;entryY=0.5;entryDx=0;entryDy=0;" edge="1" parent="1" source="5w3eW8xjQz-hiDy6CdJV-12" target="5w3eW8xjQz-hiDy6CdJV-17">
          <mxGeometry relative="1" as="geometry" />
        </mxCell>
        <mxCell id="5w3eW8xjQz-hiDy6CdJV-12" value="New Data" style="whiteSpace=wrap;html=1;aspect=fixed;" vertex="1" parent="1">
          <mxGeometry x="480" y="232.5" width="75" height="75" as="geometry" />
        </mxCell>
        <mxCell id="5w3eW8xjQz-hiDy6CdJV-16" value="" style="rounded=0;whiteSpace=wrap;html=1;" vertex="1" parent="1">
          <mxGeometry x="660" y="225" width="70" height="30" as="geometry" />
        </mxCell>
        <mxCell id="5w3eW8xjQz-hiDy6CdJV-17" value="Database" style="rounded=0;whiteSpace=wrap;html=1;" vertex="1" parent="1">
          <mxGeometry x="660" y="255" width="70" height="30" as="geometry" />
        </mxCell>
        <mxCell id="5w3eW8xjQz-hiDy6CdJV-18" value="" style="rounded=0;whiteSpace=wrap;html=1;" vertex="1" parent="1">
          <mxGeometry x="660" y="285" width="70" height="30" as="geometry" />
        </mxCell>
        <mxCell id="5w3eW8xjQz-hiDy6CdJV-20" value="" style="endArrow=classic;html=1;rounded=0;exitX=1;exitY=0.5;exitDx=0;exitDy=0;entryX=0;entryY=0;entryDx=0;entryDy=0;" edge="1" parent="1" source="5w3eW8xjQz-hiDy6CdJV-6" target="5w3eW8xjQz-hiDy6CdJV-11">
          <mxGeometry width="50" height="50" relative="1" as="geometry">
            <mxPoint x="470" y="390" as="sourcePoint" />
            <mxPoint x="520" y="340" as="targetPoint" />
          </mxGeometry>
        </mxCell>
        <mxCell id="5w3eW8xjQz-hiDy6CdJV-21" value="" style="endArrow=classic;html=1;rounded=0;exitX=1;exitY=0.5;exitDx=0;exitDy=0;entryX=0;entryY=1;entryDx=0;entryDy=0;" edge="1" parent="1" source="5w3eW8xjQz-hiDy6CdJV-10" target="5w3eW8xjQz-hiDy6CdJV-11">
          <mxGeometry width="50" height="50" relative="1" as="geometry">
            <mxPoint x="300" y="358" as="sourcePoint" />
            <mxPoint x="412" y="405" as="targetPoint" />
          </mxGeometry>
        </mxCell>
        <mxCell id="5w3eW8xjQz-hiDy6CdJV-22" value="Existing table" style="ellipse;whiteSpace=wrap;html=1;aspect=fixed;" vertex="1" parent="1">
          <mxGeometry x="820" y="325" width="80" height="80" as="geometry" />
        </mxCell>
        <mxCell id="5w3eW8xjQz-hiDy6CdJV-23" value="" style="endArrow=classic;html=1;rounded=0;exitX=1;exitY=0.5;exitDx=0;exitDy=0;" edge="1" parent="1" source="5w3eW8xjQz-hiDy6CdJV-17" target="5w3eW8xjQz-hiDy6CdJV-22">
          <mxGeometry width="50" height="50" relative="1" as="geometry">
            <mxPoint x="720" y="325" as="sourcePoint" />
            <mxPoint x="832" y="372" as="targetPoint" />
          </mxGeometry>
        </mxCell>
        <mxCell id="5w3eW8xjQz-hiDy6CdJV-24" value="New Data" style="whiteSpace=wrap;html=1;aspect=fixed;" vertex="1" parent="1">
          <mxGeometry x="660" y="410" width="75" height="75" as="geometry" />
        </mxCell>
        <mxCell id="5w3eW8xjQz-hiDy6CdJV-25" value="" style="endArrow=classic;html=1;rounded=0;exitX=1;exitY=0.5;exitDx=0;exitDy=0;entryX=0.075;entryY=0.875;entryDx=0;entryDy=0;entryPerimeter=0;" edge="1" parent="1" source="5w3eW8xjQz-hiDy6CdJV-24" target="5w3eW8xjQz-hiDy6CdJV-22">
          <mxGeometry width="50" height="50" relative="1" as="geometry">
            <mxPoint x="740" y="430" as="sourcePoint" />
            <mxPoint x="838" y="501" as="targetPoint" />
          </mxGeometry>
        </mxCell>
        <mxCell id="5w3eW8xjQz-hiDy6CdJV-26" value="" style="rounded=0;whiteSpace=wrap;html=1;" vertex="1" parent="1">
          <mxGeometry x="1075" y="317.5" width="70" height="30" as="geometry" />
        </mxCell>
        <mxCell id="5w3eW8xjQz-hiDy6CdJV-27" value="Database" style="rounded=0;whiteSpace=wrap;html=1;" vertex="1" parent="1">
          <mxGeometry x="1075" y="347.5" width="70" height="30" as="geometry" />
        </mxCell>
        <mxCell id="5w3eW8xjQz-hiDy6CdJV-28" value="" style="rounded=0;whiteSpace=wrap;html=1;" vertex="1" parent="1">
          <mxGeometry x="1075" y="377.5" width="70" height="30" as="geometry" />
        </mxCell>
        <mxCell id="5w3eW8xjQz-hiDy6CdJV-32" value="&lt;b&gt;Call exiting table&lt;/b&gt;" style="text;html=1;align=center;verticalAlign=middle;whiteSpace=wrap;rounded=0;" vertex="1" parent="1">
          <mxGeometry x="330" y="180" width="100" height="30" as="geometry" />
        </mxCell>
        <mxCell id="5w3eW8xjQz-hiDy6CdJV-33" value="&lt;b style=&quot;&quot;&gt;Join w/ existing data&lt;/b&gt;" style="text;html=1;align=center;verticalAlign=middle;whiteSpace=wrap;rounded=0;" vertex="1" parent="1">
          <mxGeometry x="340" y="340" width="100" height="30" as="geometry" />
        </mxCell>
        <mxCell id="5w3eW8xjQz-hiDy6CdJV-34" value="&lt;b&gt;Combined data pushed to database&lt;/b&gt;" style="text;html=1;align=center;verticalAlign=middle;whiteSpace=wrap;rounded=0;" vertex="1" parent="1">
          <mxGeometry x="561" y="228.5" width="85" height="30" as="geometry" />
        </mxCell>
        <mxCell id="5w3eW8xjQz-hiDy6CdJV-35" value="&lt;font face=&quot;Helvetica&quot;&gt;&lt;b&gt;Combined data pushed to database&lt;/b&gt;&lt;/font&gt;" style="text;html=1;align=center;verticalAlign=middle;whiteSpace=wrap;rounded=0;" vertex="1" parent="1">
          <mxGeometry x="990" y="317.5" width="85" height="30" as="geometry" />
        </mxCell>
        <mxCell id="5w3eW8xjQz-hiDy6CdJV-37" value="&lt;b&gt;Call exiting table&lt;/b&gt;" style="text;html=1;align=center;verticalAlign=middle;whiteSpace=wrap;rounded=0;" vertex="1" parent="1">
          <mxGeometry x="780" y="277.5" width="100" height="30" as="geometry" />
        </mxCell>
        <mxCell id="5w3eW8xjQz-hiDy6CdJV-38" value="&lt;b&gt;Join w/ existing data&lt;/b&gt;" style="text;html=1;align=center;verticalAlign=middle;whiteSpace=wrap;rounded=0;" vertex="1" parent="1">
          <mxGeometry x="770" y="430" width="100" height="30" as="geometry" />
        </mxCell>
        <mxCell id="5w3eW8xjQz-hiDy6CdJV-39" value="New Data" style="whiteSpace=wrap;html=1;aspect=fixed;" vertex="1" parent="1">
          <mxGeometry x="1075" y="497.5" width="75" height="75" as="geometry" />
        </mxCell>
        <mxCell id="5w3eW8xjQz-hiDy6CdJV-40" value="Existing table" style="ellipse;whiteSpace=wrap;html=1;aspect=fixed;" vertex="1" parent="1">
          <mxGeometry x="1255" y="397.5" width="80" height="80" as="geometry" />
        </mxCell>
        <mxCell id="5w3eW8xjQz-hiDy6CdJV-41" value="" style="endArrow=classic;html=1;rounded=0;exitX=1;exitY=0.5;exitDx=0;exitDy=0;entryX=0;entryY=0;entryDx=0;entryDy=0;" edge="1" parent="1" source="5w3eW8xjQz-hiDy6CdJV-27" target="5w3eW8xjQz-hiDy6CdJV-40">
          <mxGeometry width="50" height="50" relative="1" as="geometry">
            <mxPoint x="1145" y="402" as="sourcePoint" />
            <mxPoint x="1243" y="473" as="targetPoint" />
          </mxGeometry>
        </mxCell>
        <mxCell id="5w3eW8xjQz-hiDy6CdJV-42" value="" style="endArrow=classic;html=1;rounded=0;exitX=1;exitY=0.5;exitDx=0;exitDy=0;entryX=0;entryY=1;entryDx=0;entryDy=0;" edge="1" parent="1" source="5w3eW8xjQz-hiDy6CdJV-39" target="5w3eW8xjQz-hiDy6CdJV-40">
          <mxGeometry width="50" height="50" relative="1" as="geometry">
            <mxPoint x="1195" y="537.5" as="sourcePoint" />
            <mxPoint x="1317" y="584.5" as="targetPoint" />
          </mxGeometry>
        </mxCell>
        <mxCell id="5w3eW8xjQz-hiDy6CdJV-43" value="&lt;b&gt;Call exiting table&lt;/b&gt;" style="text;html=1;align=center;verticalAlign=middle;whiteSpace=wrap;rounded=0;" vertex="1" parent="1">
          <mxGeometry x="1195" y="352.5" width="100" height="30" as="geometry" />
        </mxCell>
        <mxCell id="5w3eW8xjQz-hiDy6CdJV-44" value="&lt;b&gt;Join w/ existing data&lt;/b&gt;" style="text;html=1;align=center;verticalAlign=middle;whiteSpace=wrap;rounded=0;" vertex="1" parent="1">
          <mxGeometry x="1195" y="507.5" width="100" height="30" as="geometry" />
        </mxCell>
        <mxCell id="5w3eW8xjQz-hiDy6CdJV-45" value="" style="rounded=0;whiteSpace=wrap;html=1;" vertex="1" parent="1">
          <mxGeometry x="1520" y="392.5" width="70" height="30" as="geometry" />
        </mxCell>
        <mxCell id="5w3eW8xjQz-hiDy6CdJV-46" value="Database" style="rounded=0;whiteSpace=wrap;html=1;" vertex="1" parent="1">
          <mxGeometry x="1520" y="422.5" width="70" height="30" as="geometry" />
        </mxCell>
        <mxCell id="5w3eW8xjQz-hiDy6CdJV-47" value="" style="rounded=0;whiteSpace=wrap;html=1;" vertex="1" parent="1">
          <mxGeometry x="1520" y="452.5" width="70" height="30" as="geometry" />
        </mxCell>
        <mxCell id="5w3eW8xjQz-hiDy6CdJV-49" value="&lt;b&gt;Combined data pushed to database&lt;/b&gt;" style="text;html=1;align=center;verticalAlign=middle;whiteSpace=wrap;rounded=0;" vertex="1" parent="1">
          <mxGeometry x="1430" y="397.5" width="85" height="30" as="geometry" />
        </mxCell>
        <mxCell id="5w3eW8xjQz-hiDy6CdJV-51" style="edgeStyle=orthogonalEdgeStyle;rounded=0;orthogonalLoop=1;jettySize=auto;html=1;entryX=0;entryY=0.5;entryDx=0;entryDy=0;" edge="1" parent="1" source="5w3eW8xjQz-hiDy6CdJV-50" target="5w3eW8xjQz-hiDy6CdJV-27">
          <mxGeometry relative="1" as="geometry" />
        </mxCell>
        <mxCell id="5w3eW8xjQz-hiDy6CdJV-50" value="New Data" style="whiteSpace=wrap;html=1;aspect=fixed;" vertex="1" parent="1">
          <mxGeometry x="910" y="325" width="75" height="75" as="geometry" />
        </mxCell>
        <mxCell id="5w3eW8xjQz-hiDy6CdJV-53" style="edgeStyle=orthogonalEdgeStyle;rounded=0;orthogonalLoop=1;jettySize=auto;html=1;entryX=0;entryY=0.5;entryDx=0;entryDy=0;" edge="1" parent="1" source="5w3eW8xjQz-hiDy6CdJV-52" target="5w3eW8xjQz-hiDy6CdJV-46">
          <mxGeometry relative="1" as="geometry" />
        </mxCell>
        <mxCell id="5w3eW8xjQz-hiDy6CdJV-52" value="New Data" style="whiteSpace=wrap;html=1;aspect=fixed;" vertex="1" parent="1">
          <mxGeometry x="1350" y="400" width="75" height="75" as="geometry" />
        </mxCell>
      </root>
    </mxGraphModel>
  </diagram>
</mxfile>
